<?xml version="1.0" encoding="UTF-8"?>
<svg viewBox="0 0 612 124" version="1.1" xmlns="http://www.w3.org/2000/svg" xmlns:xlink="http://www.w3.org/1999/xlink">
	<g id="logo" fill="#3C3B3D" fill-rule="nonzero">
		<rect x="163" y="39" width="17.1098412" height="13">
		</rect>
		<polygon points="163 56 180.109841 56 180.089472 91.4118222 163 97">
		</polygon>
		<polygon points="255.607357 39 251.183724 51.5957303 217.117796 51.5957303 217.117796 64.0115215 253.217805 64.0115215 247.885747 76.7272111 217.117796 76.7272111 217.117796 92.9217215 199.245527 98 199.245527 39">
		</polygon>
		<polygon points="272.704276 39 289.896773 39.0394464 289.896773 82.5290657 325.04026 82.450173 319.789158 96 272.704276 95.9605536">
		</polygon>
		<polygon points="309.956264 38 331.448075 38 349.567447 60.1624365 366.92852 38 388.460241 38 358.088342 76.7742809 358.088342 92.5475465 340.667403 97 340.667403 76.8940778">
		</polygon>
		<polygon points="462.944835 39 457.613013 52.4754321 439.575994 52.4754321 439.575994 93.5415114 422.153423 98 422.153423 52.4754321 399.537776 52.4754321 399.537776 39">
		</polygon>
		<polygon points="473.002986 39 532.384199 39 527.883812 51.0497409 490.805402 51.0497409 490.805402 62.134715 529.855221 62.134715 526.01197 72.9834197 490.805402 72.9834197 490.805402 84.1668394 532.384199 84.1668394 527.883812 96 473.002986 96">
		</polygon>
		<polygon points="541.448812 38.202124 559.131032 38.202124 559.131032 60.1325797 563.497256 60.1325797 585.96059 38 608.404168 38 579.816266 66.4994861 611.901099 96.3532032 587.363314 96.3532032 563.497256 73.4727646 559.131032 73.4727646 559.131032 93.2607057 541.448812 97">
		</polygon>
		<path d="M90.4291339,106.556072 C57.0507258,123.247186 22.8308454,127.642513 13.7766016,100.992367 C13.6721403,100.723914 13.5859301,100.448822 13.51855,100.168939 C12.5536616,95.9627782 12.3965867,91.2670114 13.6531856,84.6907125 C22.9318221,36.6314316 83.2149099,0 83.2149099,0 C81.1504974,1.11274093 79.1646224,2.30337373 77.2011866,3.46062431 C32.9621739,28.5529324 11.9478014,55.2142052 4.37454917,75.0209938 C-1.2352673,89.8427031 0.537434708,99.4456573 1.34524828,102.372166 C2.4724543,106.442596 4.5608119,110.188287 7.43750897,113.299282 C20.9010685,128.165501 44.0359516,124.94968 62.0546821,119.10779 C71.9379519,115.941639 81.4504647,111.733685 90.4291339,106.556072 L90.4291339,106.556072 Z" id="路径">
		</path>
		<path d="M139.745699,22.2037176 C141.081084,21.8430463 140.23534,22.00084 143.429134,21.2231424 C138.287905,20.1636704 107.017662,21.6965236 83.1365436,52.7818845 L62.0931165,21.3922071 L53.9472737,21.3922071 L78.9634684,58.5864389 C78.3402892,59.5444721 77.7059818,60.5025054 77.0939307,61.5056225 L76.6821873,62.2044232 L49.1287629,21.3471232 L40.9829202,21.3471232 L73.054394,68.8430301 C72.4312147,69.970128 71.7523945,71.0972259 71.0179333,72.3708466 L36.5205118,21.3471232 L28.3635408,21.3471232 L67.0674221,78.6036982 C58.0313233,92.1288733 42.9637398,109.226949 20.4291339,113.893134 C20.4291339,113.893134 59.2109126,117.274428 82.1795184,85.9974606 L100.874895,113.893134 L109.020738,113.893134 L86.1856705,79.8885898 C86.5529012,79.257415 86.9201318,78.6262401 87.2984906,77.9725233 C87.5321828,77.5329551 87.8326442,76.9806771 88.1664902,76.3833152 L113.46089,113.893134 L121.606733,113.893134 L91.927822,69.9363151 C92.6697021,68.7641332 93.4375479,67.5243255 94.2313595,66.2168919 L126.4475,113.893134 L134.593343,113.893134 L98.2486399,60.1080211 C108.375302,45.2528703 123.798988,26.5317737 139.745699,22.2037176 Z" id="路径">
		</path>
	</g>
</svg>
